<svg xmlns="http://www.w3.org/2000/svg" xmlns:xlink="http://www.w3.org/1999/xlink" viewBox="0 0 187.13 211"><defs><style>.cls-1{isolation:isolate;}.cls-2{fill:#5e6c84;}.cls-3{fill:#344563;}.cls-4{fill:url(#New_Gradient_Swatch_15);}.cls-5{fill:#ffe380;}.cls-6{fill:url(#New_Gradient_Swatch_5);}.cls-7{opacity:0.62;mix-blend-mode:multiply;fill:url(#New_Gradient_Swatch_7);}.cls-8{fill:#0052cc;}.cls-9{fill:url(#New_Gradient_Swatch_15-2);}.cls-10{fill:#fff;stroke:#fff;}.cls-10,.cls-12{stroke-linejoin:round;stroke-width:2px;}.cls-11{fill:url(#linear-gradient);}.cls-12{fill:none;stroke:#42526e;}</style><linearGradient id="New_Gradient_Swatch_15" x1="25.61" y1="201.03" x2="161.1" y2="201.03" gradientUnits="userSpaceOnUse"><stop offset="0" stop-color="#0065ff"/><stop offset="1" stop-color="#4c9aff"/></linearGradient><linearGradient id="New_Gradient_Swatch_5" y1="137.2" x2="168.91" y2="137.2" gradientUnits="userSpaceOnUse"><stop offset="0" stop-color="#ff991f"/><stop offset="1" stop-color="#ffc400"/></linearGradient><linearGradient id="New_Gradient_Swatch_7" x1="-18.17" y1="133.05" x2="166.19" y2="133.05" gradientUnits="userSpaceOnUse"><stop offset="0" stop-color="#ffc400"/><stop offset="1" stop-color="#fff0b2"/></linearGradient><linearGradient id="New_Gradient_Swatch_15-2" x1="18.22" y1="58.91" x2="187.13" y2="58.91" xlink:href="#New_Gradient_Swatch_15"/><linearGradient id="linear-gradient" x1="24.11" y1="201.03" x2="160.38" y2="201.03" gradientUnits="userSpaceOnUse"><stop offset="0" stop-color="#0052cc"/><stop offset="0.76" stop-color="#2684ff"/></linearGradient></defs><title>BTCYS </title><g class="cls-1"><g id="Layer_2" data-name="Layer 2"><g id="Values"><path id="_Rectangle_" data-name="&lt;Rectangle&gt;" class="cls-2" d="M93.56,0h0A8.45,8.45,0,0,1,102,8.45V198.4a0,0,0,0,1,0,0H85.11a0,0,0,0,1,0,0V8.45A8.45,8.45,0,0,1,93.56,0Z"/><path class="cls-3" d="M93.35,0a8.45,8.45,0,0,0-8.24,8.44V198.4h8.24Z"/><path id="_Path_" data-name="&lt;Path&gt;" class="cls-4" d="M93.35,191.06a135.45,135.45,0,0,1,67.14,17.69,1.2,1.2,0,0,1-.59,2.24H26.81a1.2,1.2,0,0,1-.59-2.24A135.45,135.45,0,0,1,93.35,191.06Z"/><path id="_Clipping_Path_" data-name="&lt;Clipping Path&gt;" class="cls-5" d="M169.65,170.18h-133a4,4,0,0,1-2.93-1.28l-26.93-29a4,4,0,0,1,0-5.45l26.93-29a4,4,0,0,1,2.93-1.28h133a5,5,0,0,1,5,5v56A5,5,0,0,1,169.65,170.18Z"/><path id="_Clipping_Path_2" data-name="&lt;Clipping Path&gt;" class="cls-5" d="M169.51,170.18h-133a4,4,0,0,1-2.93-1.28l-26.93-29a4,4,0,0,1,0-5.45l26.93-29a4,4,0,0,1,2.93-1.28h133a5,5,0,0,1,5,5v56A5,5,0,0,1,169.51,170.18Z"/><path id="_Clipping_Path_3" data-name="&lt;Clipping Path&gt;" class="cls-5" d="M169.36,170.18h-133a4,4,0,0,1-2.93-1.28l-26.93-29a4,4,0,0,1,0-5.45l26.93-29a4,4,0,0,1,2.93-1.28h133a5,5,0,0,1,5,5v56A5,5,0,0,1,169.36,170.18Z"/><path id="_Clipping_Path_4" data-name="&lt;Clipping Path&gt;" class="cls-5" d="M169.22,170.18h-133a4,4,0,0,1-2.93-1.28l-26.93-29a4,4,0,0,1,0-5.45l26.93-29a4,4,0,0,1,2.93-1.28h133a5,5,0,0,1,5,5v56A5,5,0,0,1,169.22,170.18Z"/><path id="_Clipping_Path_5" data-name="&lt;Clipping Path&gt;" class="cls-5" d="M169.08,170.18H36.1a4,4,0,0,1-2.93-1.28l-26.93-29a4,4,0,0,1,0-5.45l26.93-29a4,4,0,0,1,2.93-1.28h133a5,5,0,0,1,5,5v56A5,5,0,0,1,169.08,170.18Z"/><path id="_Clipping_Path_6" data-name="&lt;Clipping Path&gt;" class="cls-5" d="M168.93,170.18H36A4,4,0,0,1,33,168.9l-26.93-29a4,4,0,0,1,0-5.45l26.93-29A4,4,0,0,1,36,104.23h133a5,5,0,0,1,5,5v56A5,5,0,0,1,168.93,170.18Z"/><path id="_Clipping_Path_7" data-name="&lt;Clipping Path&gt;" class="cls-5" d="M168.79,170.18h-133a4,4,0,0,1-2.93-1.28L6,139.93a4,4,0,0,1,0-5.45l26.93-29a4,4,0,0,1,2.93-1.28h133a5,5,0,0,1,5,5v56A5,5,0,0,1,168.79,170.18Z"/><path id="_Clipping_Path_8" data-name="&lt;Clipping Path&gt;" class="cls-5" d="M168.65,170.18h-133a4,4,0,0,1-2.93-1.28l-26.93-29a4,4,0,0,1,0-5.45l26.93-29a4,4,0,0,1,2.93-1.28h133a5,5,0,0,1,5,5v56A5,5,0,0,1,168.65,170.18Z"/><path id="_Clipping_Path_9" data-name="&lt;Clipping Path&gt;" class="cls-5" d="M168.5,170.18h-133a4,4,0,0,1-2.93-1.28l-26.93-29a4,4,0,0,1,0-5.45l26.93-29a4,4,0,0,1,2.93-1.28h133a5,5,0,0,1,5,5v56A5,5,0,0,1,168.5,170.18Z"/><path id="_Clipping_Path_10" data-name="&lt;Clipping Path&gt;" class="cls-5" d="M168.36,170.18h-133a4,4,0,0,1-2.93-1.28l-26.93-29a4,4,0,0,1,0-5.45l26.93-29a4,4,0,0,1,2.93-1.28h133a5,5,0,0,1,5,5v56A5,5,0,0,1,168.36,170.18Z"/><path id="_Clipping_Path_11" data-name="&lt;Clipping Path&gt;" class="cls-5" d="M168.22,170.18h-133a4,4,0,0,1-2.93-1.28l-26.93-29a4,4,0,0,1,0-5.45l26.93-29a4,4,0,0,1,2.93-1.28h133a5,5,0,0,1,5,5v56A5,5,0,0,1,168.22,170.18Z"/><path id="_Clipping_Path_12" data-name="&lt;Clipping Path&gt;" class="cls-5" d="M168.07,170.18h-133a4,4,0,0,1-2.93-1.28l-26.93-29a4,4,0,0,1,0-5.45l26.93-29a4,4,0,0,1,2.93-1.28h133a5,5,0,0,1,5,5v56A5,5,0,0,1,168.07,170.18Z"/><path id="_Clipping_Path_13" data-name="&lt;Clipping Path&gt;" class="cls-5" d="M167.93,170.18h-133A4,4,0,0,1,32,168.9l-26.93-29a4,4,0,0,1,0-5.45l26.93-29a4,4,0,0,1,2.93-1.28h133a5,5,0,0,1,5,5v56A5,5,0,0,1,167.93,170.18Z"/><path id="_Clipping_Path_14" data-name="&lt;Clipping Path&gt;" class="cls-5" d="M167.79,170.18H34.8a4,4,0,0,1-2.93-1.28l-26.93-29a4,4,0,0,1,0-5.45l26.93-29a4,4,0,0,1,2.93-1.28h133a5,5,0,0,1,5,5v56A5,5,0,0,1,167.79,170.18Z"/><path id="_Clipping_Path_15" data-name="&lt;Clipping Path&gt;" class="cls-5" d="M167.64,170.18h-133a4,4,0,0,1-2.93-1.28l-26.93-29a4,4,0,0,1,0-5.45l26.93-29a4,4,0,0,1,2.93-1.28h133a5,5,0,0,1,5,5v56A5,5,0,0,1,167.64,170.18Z"/><path id="_Clipping_Path_16" data-name="&lt;Clipping Path&gt;" class="cls-5" d="M167.5,170.18h-133a4,4,0,0,1-2.93-1.28l-26.93-29a4,4,0,0,1,0-5.45l26.93-29a4,4,0,0,1,2.93-1.28h133a5,5,0,0,1,5,5v56A5,5,0,0,1,167.5,170.18Z"/><path id="_Clipping_Path_17" data-name="&lt;Clipping Path&gt;" class="cls-5" d="M167.35,170.18h-133a4,4,0,0,1-2.93-1.28l-26.93-29a4,4,0,0,1,0-5.45l26.93-29a4,4,0,0,1,2.93-1.28h133a5,5,0,0,1,5,5v56A5,5,0,0,1,167.35,170.18Z"/><path id="_Clipping_Path_18" data-name="&lt;Clipping Path&gt;" class="cls-5" d="M167.21,170.18h-133a4,4,0,0,1-2.93-1.28l-26.93-29a4,4,0,0,1,0-5.45l26.93-29a4,4,0,0,1,2.93-1.28h133a5,5,0,0,1,5,5v56A5,5,0,0,1,167.21,170.18Z"/><path id="_Clipping_Path_19" data-name="&lt;Clipping Path&gt;" class="cls-5" d="M167.07,170.18h-133a4,4,0,0,1-2.93-1.28l-26.93-29a4,4,0,0,1,0-5.45l26.93-29a4,4,0,0,1,2.93-1.28h133a5,5,0,0,1,5,5v56A5,5,0,0,1,167.07,170.18Z"/><path id="_Clipping_Path_20" data-name="&lt;Clipping Path&gt;" class="cls-5" d="M166.92,170.18h-133A4,4,0,0,1,31,168.9l-26.93-29a4,4,0,0,1,0-5.45l26.93-29a4,4,0,0,1,2.93-1.28h133a5,5,0,0,1,5,5v56A5,5,0,0,1,166.92,170.18Z"/><path id="_Clipping_Path_21" data-name="&lt;Clipping Path&gt;" class="cls-5" d="M166.78,170.18H33.8a4,4,0,0,1-2.93-1.28l-26.93-29a4,4,0,0,1,0-5.45l26.93-29a4,4,0,0,1,2.93-1.28h133a5,5,0,0,1,5,5v56A5,5,0,0,1,166.78,170.18Z"/><path id="_Clipping_Path_22" data-name="&lt;Clipping Path&gt;" class="cls-5" d="M166.64,170.18h-133a4,4,0,0,1-2.93-1.28l-26.93-29a4,4,0,0,1,0-5.45l26.93-29a4,4,0,0,1,2.93-1.28h133a5,5,0,0,1,5,5v56A5,5,0,0,1,166.64,170.18Z"/><path id="_Clipping_Path_23" data-name="&lt;Clipping Path&gt;" class="cls-5" d="M166.49,170.18h-133a4,4,0,0,1-2.93-1.28l-26.93-29a4,4,0,0,1,0-5.45l26.93-29a4,4,0,0,1,2.93-1.28h133a5,5,0,0,1,5,5v56A5,5,0,0,1,166.49,170.18Z"/><path id="_Clipping_Path_24" data-name="&lt;Clipping Path&gt;" class="cls-5" d="M166.35,170.18h-133a4,4,0,0,1-2.93-1.28l-26.93-29a4,4,0,0,1,0-5.45l26.93-29a4,4,0,0,1,2.93-1.28h133a5,5,0,0,1,5,5v56A5,5,0,0,1,166.35,170.18Z"/><path id="_Clipping_Path_25" data-name="&lt;Clipping Path&gt;" class="cls-5" d="M166.21,170.18h-133a4,4,0,0,1-2.93-1.28l-26.93-29a4,4,0,0,1,0-5.45l26.93-29a4,4,0,0,1,2.93-1.28h133a5,5,0,0,1,5,5v56A5,5,0,0,1,166.21,170.18Z"/><path id="_Clipping_Path_26" data-name="&lt;Clipping Path&gt;" class="cls-5" d="M166.06,170.18h-133a4,4,0,0,1-2.93-1.28l-26.93-29a4,4,0,0,1,0-5.45l26.93-29a4,4,0,0,1,2.93-1.28h133a5,5,0,0,1,5,5v56A5,5,0,0,1,166.06,170.18Z"/><path id="_Clipping_Path_27" data-name="&lt;Clipping Path&gt;" class="cls-5" d="M165.92,170.18h-133A4,4,0,0,1,30,168.9l-26.93-29a4,4,0,0,1,0-5.45l26.93-29a4,4,0,0,1,2.93-1.28h133a5,5,0,0,1,5,5v56A5,5,0,0,1,165.92,170.18Z"/><path id="_Clipping_Path_28" data-name="&lt;Clipping Path&gt;" class="cls-5" d="M165.78,170.18h-133a4,4,0,0,1-2.93-1.28l-26.93-29a4,4,0,0,1,0-5.45l26.93-29a4,4,0,0,1,2.93-1.28h133a5,5,0,0,1,5,5v56A5,5,0,0,1,165.78,170.18Z"/><path id="_Clipping_Path_29" data-name="&lt;Clipping Path&gt;" class="cls-5" d="M165.63,170.18h-133a4,4,0,0,1-2.93-1.28l-26.93-29a4,4,0,0,1,0-5.45l26.93-29a4,4,0,0,1,2.93-1.28h133a5,5,0,0,1,5,5v56A5,5,0,0,1,165.63,170.18Z"/><path id="_Clipping_Path_30" data-name="&lt;Clipping Path&gt;" class="cls-5" d="M165.49,170.18h-133a4,4,0,0,1-2.93-1.28l-26.93-29a4,4,0,0,1,0-5.45l26.93-29a4,4,0,0,1,2.93-1.28h133a5,5,0,0,1,5,5v56A5,5,0,0,1,165.49,170.18Z"/><path id="_Clipping_Path_31" data-name="&lt;Clipping Path&gt;" class="cls-5" d="M165.34,170.18h-133a4,4,0,0,1-2.93-1.28l-26.93-29a4,4,0,0,1,0-5.45l26.93-29a4,4,0,0,1,2.93-1.28h133a5,5,0,0,1,5,5v56A5,5,0,0,1,165.34,170.18Z"/><path id="_Clipping_Path_32" data-name="&lt;Clipping Path&gt;" class="cls-5" d="M165.2,170.18h-133a4,4,0,0,1-2.93-1.28l-26.93-29a4,4,0,0,1,0-5.45l26.93-29a4,4,0,0,1,2.93-1.28h133a5,5,0,0,1,5,5v56A5,5,0,0,1,165.2,170.18Z"/><path id="_Clipping_Path_33" data-name="&lt;Clipping Path&gt;" class="cls-5" d="M165.06,170.18h-133a4,4,0,0,1-2.93-1.28l-26.93-29a4,4,0,0,1,0-5.45l26.93-29a4,4,0,0,1,2.93-1.28h133a5,5,0,0,1,5,5v56A5,5,0,0,1,165.06,170.18Z"/><path id="_Clipping_Path_34" data-name="&lt;Clipping Path&gt;" class="cls-5" d="M164.91,170.18h-133A4,4,0,0,1,29,168.9l-26.93-29a4,4,0,0,1,0-5.45l26.93-29a4,4,0,0,1,2.93-1.28h133a5,5,0,0,1,5,5v56A5,5,0,0,1,164.91,170.18Z"/><path id="_Clipping_Path_35" data-name="&lt;Clipping Path&gt;" class="cls-5" d="M164.77,170.18h-133a4,4,0,0,1-2.93-1.28l-26.93-29a4,4,0,0,1,0-5.45l26.93-29a4,4,0,0,1,2.93-1.28h133a5,5,0,0,1,5,5v56A5,5,0,0,1,164.77,170.18Z"/><path id="_Clipping_Path_36" data-name="&lt;Clipping Path&gt;" class="cls-5" d="M164.63,170.18h-133a4,4,0,0,1-2.93-1.28l-26.93-29a4,4,0,0,1,0-5.45l26.93-29a4,4,0,0,1,2.93-1.28h133a5,5,0,0,1,5,5v56A5,5,0,0,1,164.63,170.18Z"/><path id="_Clipping_Path_37" data-name="&lt;Clipping Path&gt;" class="cls-5" d="M164.48,170.18H31.5a4,4,0,0,1-2.93-1.28l-26.93-29a4,4,0,0,1,0-5.45l26.93-29a4,4,0,0,1,2.93-1.28h133a5,5,0,0,1,5,5v56A5,5,0,0,1,164.48,170.18Z"/><path id="_Clipping_Path_38" data-name="&lt;Clipping Path&gt;" class="cls-5" d="M164.34,170.18h-133a4,4,0,0,1-2.93-1.28l-26.93-29a4,4,0,0,1,0-5.45l26.93-29a4,4,0,0,1,2.93-1.28h133a5,5,0,0,1,5,5v56A5,5,0,0,1,164.34,170.18Z"/><path id="_Clipping_Path_39" data-name="&lt;Clipping Path&gt;" class="cls-5" d="M164.2,170.18h-133a4,4,0,0,1-2.93-1.28l-26.93-29a4,4,0,0,1,0-5.45l26.93-29a4,4,0,0,1,2.93-1.28h133a5,5,0,0,1,5,5v56A5,5,0,0,1,164.2,170.18Z"/><path id="_Clipping_Path_40" data-name="&lt;Clipping Path&gt;" class="cls-5" d="M164.05,170.18h-133a4,4,0,0,1-2.93-1.28l-26.93-29a4,4,0,0,1,0-5.45l26.93-29a4,4,0,0,1,2.93-1.28h133a5,5,0,0,1,5,5v56A5,5,0,0,1,164.05,170.18Z"/><path id="_Clipping_Path_41" data-name="&lt;Clipping Path&gt;" class="cls-5" d="M163.91,170.18h-133A4,4,0,0,1,28,168.9l-26.93-29a4,4,0,0,1,0-5.45l26.93-29a4,4,0,0,1,2.93-1.28h133a5,5,0,0,1,5,5v56A5,5,0,0,1,163.91,170.18Z"/><path id="_Path_2" data-name="&lt;Path&gt;" class="cls-6" d="M163.91,170.18h-133A4,4,0,0,1,28,168.9l-26.93-29a4,4,0,0,1,0-5.45l26.93-29a4,4,0,0,1,2.93-1.28h133a5,5,0,0,1,5,5v56A5,5,0,0,1,163.91,170.18Z"/><path class="cls-7" d="M30.93,104.23A4,4,0,0,0,28,105.51l-26.93,29a4,4,0,0,0,0,5.45l20.4,21.95a36.23,36.23,0,0,1,7.28-11c22.78-23.33,65.15,1.71,104.82-19.35,8-4.27,18.95-12,29.23-27.28Z"/><path class="cls-8" d="M150.46,91.89h-134a4,4,0,0,1-4-4v-58a4,4,0,0,1,4-4h134a4,4,0,0,1,2.93,1.28l26.93,29a4,4,0,0,1,0,5.45l-26.93,29A4,4,0,0,1,150.46,91.89Z"/><path class="cls-8" d="M150.6,91.89h-134a4,4,0,0,1-4-4v-58a4,4,0,0,1,4-4h134a4,4,0,0,1,2.93,1.28l26.93,29a4,4,0,0,1,0,5.45l-26.93,29A4,4,0,0,1,150.6,91.89Z"/><path class="cls-8" d="M150.74,91.89h-134a4,4,0,0,1-4-4v-58a4,4,0,0,1,4-4h134a4,4,0,0,1,2.93,1.28l26.93,29a4,4,0,0,1,0,5.45l-26.93,29A4,4,0,0,1,150.74,91.89Z"/><path class="cls-8" d="M150.89,91.89h-134a4,4,0,0,1-4-4v-58a4,4,0,0,1,4-4h134a4,4,0,0,1,2.93,1.28l26.93,29a4,4,0,0,1,0,5.45l-26.93,29A4,4,0,0,1,150.89,91.89Z"/><path class="cls-8" d="M151,91.89H17a4,4,0,0,1-4-4v-58a4,4,0,0,1,4-4H151A4,4,0,0,1,154,27.21l26.93,29a4,4,0,0,1,0,5.45L154,90.61A4,4,0,0,1,151,91.89Z"/><path class="cls-8" d="M151.17,91.89h-134a4,4,0,0,1-4-4v-58a4,4,0,0,1,4-4h134a4,4,0,0,1,2.93,1.28l26.93,29a4,4,0,0,1,0,5.45l-26.93,29A4,4,0,0,1,151.17,91.89Z"/><path class="cls-8" d="M151.32,91.89h-134a4,4,0,0,1-4-4v-58a4,4,0,0,1,4-4h134a4,4,0,0,1,2.93,1.28l26.93,29a4,4,0,0,1,0,5.45l-26.93,29A4,4,0,0,1,151.32,91.89Z"/><path class="cls-8" d="M151.46,91.89h-134a4,4,0,0,1-4-4v-58a4,4,0,0,1,4-4h134a4,4,0,0,1,2.93,1.28l26.93,29a4,4,0,0,1,0,5.45l-26.93,29A4,4,0,0,1,151.46,91.89Z"/><path class="cls-8" d="M151.6,91.89h-134a4,4,0,0,1-4-4v-58a4,4,0,0,1,4-4h134a4,4,0,0,1,2.93,1.28l26.93,29a4,4,0,0,1,0,5.45l-26.93,29A4,4,0,0,1,151.6,91.89Z"/><path class="cls-8" d="M151.75,91.89h-134a4,4,0,0,1-4-4v-58a4,4,0,0,1,4-4h134a4,4,0,0,1,2.93,1.28l26.93,29a4,4,0,0,1,0,5.45l-26.93,29A4,4,0,0,1,151.75,91.89Z"/><path class="cls-8" d="M151.89,91.89h-134a4,4,0,0,1-4-4v-58a4,4,0,0,1,4-4h134a4,4,0,0,1,2.93,1.28l26.93,29a4,4,0,0,1,0,5.45l-26.93,29A4,4,0,0,1,151.89,91.89Z"/><path class="cls-8" d="M152,91.89h-134a4,4,0,0,1-4-4v-58a4,4,0,0,1,4-4H152A4,4,0,0,1,155,27.21l26.93,29a4,4,0,0,1,0,5.45L155,90.61A4,4,0,0,1,152,91.89Z"/><path class="cls-8" d="M152.18,91.89H18.2a4,4,0,0,1-4-4v-58a4,4,0,0,1,4-4h134a4,4,0,0,1,2.93,1.28l26.93,29a4,4,0,0,1,0,5.45l-26.93,29A4,4,0,0,1,152.18,91.89Z"/><path class="cls-8" d="M152.32,91.89h-134a4,4,0,0,1-4-4v-58a4,4,0,0,1,4-4h134a4,4,0,0,1,2.93,1.28l26.93,29a4,4,0,0,1,0,5.45l-26.93,29A4,4,0,0,1,152.32,91.89Z"/><path class="cls-8" d="M152.47,91.89h-134a4,4,0,0,1-4-4v-58a4,4,0,0,1,4-4h134a4,4,0,0,1,2.93,1.28l26.93,29a4,4,0,0,1,0,5.45l-26.93,29A4,4,0,0,1,152.47,91.89Z"/><path class="cls-8" d="M152.61,91.89h-134a4,4,0,0,1-4-4v-58a4,4,0,0,1,4-4h134a4,4,0,0,1,2.93,1.28l26.93,29a4,4,0,0,1,0,5.45l-26.93,29A4,4,0,0,1,152.61,91.89Z"/><path class="cls-8" d="M152.75,91.89h-134a4,4,0,0,1-4-4v-58a4,4,0,0,1,4-4h134a4,4,0,0,1,2.93,1.28l26.93,29a4,4,0,0,1,0,5.45l-26.93,29A4,4,0,0,1,152.75,91.89Z"/><path class="cls-8" d="M152.9,91.89h-134a4,4,0,0,1-4-4v-58a4,4,0,0,1,4-4h134a4,4,0,0,1,2.93,1.28l26.93,29a4,4,0,0,1,0,5.45l-26.93,29A4,4,0,0,1,152.9,91.89Z"/><path class="cls-8" d="M153,91.89h-134a4,4,0,0,1-4-4v-58a4,4,0,0,1,4-4H153A4,4,0,0,1,156,27.21l26.93,29a4,4,0,0,1,0,5.45L156,90.61A4,4,0,0,1,153,91.89Z"/><path class="cls-8" d="M153.18,91.89H19.2a4,4,0,0,1-4-4v-58a4,4,0,0,1,4-4h134a4,4,0,0,1,2.93,1.28l26.93,29a4,4,0,0,1,0,5.45l-26.93,29A4,4,0,0,1,153.18,91.89Z"/><path class="cls-8" d="M153.33,91.89h-134a4,4,0,0,1-4-4v-58a4,4,0,0,1,4-4h134a4,4,0,0,1,2.93,1.28l26.93,29a4,4,0,0,1,0,5.45l-26.93,29A4,4,0,0,1,153.33,91.89Z"/><path class="cls-8" d="M153.47,91.89h-134a4,4,0,0,1-4-4v-58a4,4,0,0,1,4-4h134a4,4,0,0,1,2.93,1.28l26.93,29a4,4,0,0,1,0,5.45l-26.93,29A4,4,0,0,1,153.47,91.89Z"/><path class="cls-8" d="M153.61,91.89h-134a4,4,0,0,1-4-4v-58a4,4,0,0,1,4-4h134a4,4,0,0,1,2.93,1.28l26.93,29a4,4,0,0,1,0,5.45l-26.93,29A4,4,0,0,1,153.61,91.89Z"/><path class="cls-8" d="M153.76,91.89h-134a4,4,0,0,1-4-4v-58a4,4,0,0,1,4-4h134a4,4,0,0,1,2.93,1.28l26.93,29a4,4,0,0,1,0,5.45l-26.93,29A4,4,0,0,1,153.76,91.89Z"/><path class="cls-8" d="M153.9,91.89h-134a4,4,0,0,1-4-4v-58a4,4,0,0,1,4-4h134a4,4,0,0,1,2.93,1.28l26.93,29a4,4,0,0,1,0,5.45l-26.93,29A4,4,0,0,1,153.9,91.89Z"/><path class="cls-8" d="M154,91.89h-134a4,4,0,0,1-4-4v-58a4,4,0,0,1,4-4H154A4,4,0,0,1,157,27.21l26.93,29a4,4,0,0,1,0,5.45L157,90.61A4,4,0,0,1,154,91.89Z"/><path class="cls-8" d="M154.19,91.89h-134a4,4,0,0,1-4-4v-58a4,4,0,0,1,4-4h134a4,4,0,0,1,2.93,1.28l26.93,29a4,4,0,0,1,0,5.45l-26.93,29A4,4,0,0,1,154.19,91.89Z"/><path class="cls-8" d="M154.33,91.89h-134a4,4,0,0,1-4-4v-58a4,4,0,0,1,4-4h134a4,4,0,0,1,2.93,1.28l26.93,29a4,4,0,0,1,0,5.45l-26.93,29A4,4,0,0,1,154.33,91.89Z"/><path class="cls-8" d="M154.48,91.89h-134a4,4,0,0,1-4-4v-58a4,4,0,0,1,4-4h134a4,4,0,0,1,2.93,1.28l26.93,29a4,4,0,0,1,0,5.45l-26.93,29A4,4,0,0,1,154.48,91.89Z"/><path class="cls-8" d="M154.62,91.89h-134a4,4,0,0,1-4-4v-58a4,4,0,0,1,4-4h134a4,4,0,0,1,2.93,1.28l26.93,29a4,4,0,0,1,0,5.45l-26.93,29A4,4,0,0,1,154.62,91.89Z"/><path class="cls-8" d="M154.76,91.89h-134a4,4,0,0,1-4-4v-58a4,4,0,0,1,4-4h134a4,4,0,0,1,2.93,1.28l26.93,29a4,4,0,0,1,0,5.45l-26.93,29A4,4,0,0,1,154.76,91.89Z"/><path class="cls-8" d="M154.91,91.89h-134a4,4,0,0,1-4-4v-58a4,4,0,0,1,4-4h134a4,4,0,0,1,2.93,1.28l26.93,29a4,4,0,0,1,0,5.45l-26.93,29A4,4,0,0,1,154.91,91.89Z"/><path class="cls-8" d="M155,91.89h-134a4,4,0,0,1-4-4v-58a4,4,0,0,1,4-4H155A4,4,0,0,1,158,27.21l26.93,29a4,4,0,0,1,0,5.45L158,90.61A4,4,0,0,1,155,91.89Z"/><path class="cls-8" d="M155.19,91.89h-134a4,4,0,0,1-4-4v-58a4,4,0,0,1,4-4h134a4,4,0,0,1,2.93,1.28l26.93,29a4,4,0,0,1,0,5.45l-26.93,29A4,4,0,0,1,155.19,91.89Z"/><path class="cls-8" d="M155.34,91.89h-134a4,4,0,0,1-4-4v-58a4,4,0,0,1,4-4h134a4,4,0,0,1,2.93,1.28l26.93,29a4,4,0,0,1,0,5.45l-26.93,29A4,4,0,0,1,155.34,91.89Z"/><path class="cls-8" d="M155.48,91.89H21.5a4,4,0,0,1-4-4v-58a4,4,0,0,1,4-4h134a4,4,0,0,1,2.93,1.28l26.93,29a4,4,0,0,1,0,5.45l-26.93,29A4,4,0,0,1,155.48,91.89Z"/><path class="cls-8" d="M155.62,91.89h-134a4,4,0,0,1-4-4v-58a4,4,0,0,1,4-4h134a4,4,0,0,1,2.93,1.28l26.93,29a4,4,0,0,1,0,5.45l-26.93,29A4,4,0,0,1,155.62,91.89Z"/><path class="cls-8" d="M155.77,91.89h-134a4,4,0,0,1-4-4v-58a4,4,0,0,1,4-4h134a4,4,0,0,1,2.93,1.28l26.93,29a4,4,0,0,1,0,5.45l-26.93,29A4,4,0,0,1,155.77,91.89Z"/><path class="cls-8" d="M155.91,91.89h-134a4,4,0,0,1-4-4v-58a4,4,0,0,1,4-4h134a4,4,0,0,1,2.93,1.28l26.93,29a4,4,0,0,1,0,5.45l-26.93,29A4,4,0,0,1,155.91,91.89Z"/><path class="cls-8" d="M156.05,91.89h-134a4,4,0,0,1-4-4v-58a4,4,0,0,1,4-4h134A4,4,0,0,1,159,27.21l26.93,29a4,4,0,0,1,0,5.45L159,90.61A4,4,0,0,1,156.05,91.89Z"/><path class="cls-8" d="M156.2,91.89h-134a4,4,0,0,1-4-4v-58a4,4,0,0,1,4-4h134a4,4,0,0,1,2.93,1.28l26.93,29a4,4,0,0,1,0,5.45l-26.93,29A4,4,0,0,1,156.2,91.89Z"/><path class="cls-9" d="M156.2,91.89h-134a4,4,0,0,1-4-4v-58a4,4,0,0,1,4-4h134a4,4,0,0,1,2.93,1.28l26.93,29a4,4,0,0,1,0,5.45l-26.93,29A4,4,0,0,1,156.2,91.89Z"/><polygon class="cls-10" points="90.98 75.86 73.41 58.91 80.51 51.81 90.98 61.65 112.88 39.96 119.98 47.06 90.98 75.86"/><path class="cls-11" d="M114.18,202.89c-9.54-2.55-19.45-5.46-20.83-11.83h0a135.45,135.45,0,0,0-67.14,17.69,1.2,1.2,0,0,0,.59,2.24H147.56C138.92,209.09,126.84,206.28,114.18,202.89Z"/><polygon class="cls-12" points="110.39 125.25 103.29 118.15 91.34 130.1 79.38 118.15 72.28 125.25 84.23 137.21 72.28 149.16 79.38 156.26 91.34 144.31 103.29 156.26 110.39 149.16 98.44 137.21 110.39 125.25"/></g></g></g></svg>